<svg width="544" height="544" viewBox="0 0 544 544" fill="none" xmlns="http://www.w3.org/2000/svg">
<g opacity="0.1">
<g clip-path="url(#clip0_9_326)">
<path d="M158.852 495.473L163.66 484.988C165.018 482.061 163.381 478.682 160.281 477.777C152.059 475.338 143.908 472.064 136 467.883C123.807 461.404 112.172 452.904 101.652 442.418C93.291 434.057 86.2193 425 80.4016 415.49C78.0328 411.588 79.6004 406.502 83.7111 404.586L95.834 399.012C99.3525 397.41 103.533 398.664 105.484 401.973C109.838 409.324 115.133 416.256 121.473 422.596C129.451 430.574 138.404 436.949 147.949 441.791C156.275 446.006 165.053 449.037 174.041 450.848C176.932 451.441 179.824 449.838 181.043 447.156L191.773 423.781L234.482 330.977C237.303 324.881 235.979 317.531 231.242 312.793C226.504 308.055 219.154 306.732 213.057 309.553L120.219 352.227L92.3504 365.082L64.6209 377.797L48.5615 385.182C40.9324 388.666 37.1004 397.096 39.5041 404.795C39.7131 405.422 39.9221 406.084 40.2357 406.641C49.084 427.23 62.2869 446.912 79.7049 464.33C97.1229 481.748 116.736 494.846 137.219 503.695C137.428 503.834 137.637 503.904 137.881 504.008C138.264 504.182 138.787 504.322 139.205 504.461C146.973 506.934 155.369 503.033 158.852 495.439V495.473ZM172.264 363.863C175.783 362.295 178.291 364.385 178.988 365.082C179.684 365.779 181.775 368.287 180.172 371.771L163.346 408.383C161.883 411.553 157.912 412.738 154.986 410.787C150.77 407.965 146.764 404.691 143.072 400.998C139.379 397.305 136.07 393.264 133.248 389.049C131.297 386.123 132.447 382.152 135.652 380.689L172.264 363.863V363.863Z" fill="white"/>
<path d="M385.182 48.5266L380.375 59.0123C379.016 61.9385 380.654 65.3176 383.754 66.2234C391.975 68.6619 400.127 71.9365 408.035 76.1168C420.227 82.5963 431.863 91.0963 442.383 101.582C450.744 109.943 457.816 119 463.633 128.51C466.002 132.412 464.434 137.498 460.324 139.414L448.201 144.988C444.682 146.59 440.502 145.336 438.551 142.027C434.197 134.676 428.902 127.744 422.561 121.404C414.584 113.426 405.631 107.051 396.086 102.209C387.76 97.9939 378.982 94.9631 369.994 93.1516C367.102 92.5594 364.211 94.1619 362.992 96.8443L352.262 120.219L309.553 213.023C306.732 219.119 308.055 226.469 312.793 231.207C317.531 235.945 324.881 237.268 330.977 234.447L423.816 191.773L451.684 178.918L479.414 166.203L495.473 158.818C503.102 155.334 506.934 146.904 504.531 139.205C504.322 138.578 504.113 137.916 503.799 137.359C494.951 116.77 481.748 97.0881 464.33 79.6701C446.912 62.2521 427.299 49.1537 406.816 40.3053C406.607 40.166 406.397 40.0963 406.154 39.9918C405.77 39.8176 405.248 39.6783 404.83 39.5389C397.061 37.0656 388.666 40.9672 385.182 48.5615V48.5266ZM371.77 180.137C368.252 181.705 365.744 179.615 365.047 178.918C364.35 178.221 362.26 175.713 363.863 172.229L380.688 135.617C382.152 132.447 386.123 131.262 389.049 133.213C393.264 136.035 397.27 139.309 400.963 143.002C404.656 146.695 407.965 150.736 410.787 154.951C412.738 157.877 411.588 161.848 408.383 163.311L371.77 180.137V180.137Z" fill="white"/>
<path d="M48.5266 158.852L59.0123 163.66C61.9385 165.018 65.3176 163.381 66.2234 160.281C68.6619 152.059 71.9365 143.908 76.1168 136C82.5963 123.807 91.0963 112.172 101.582 101.652C109.943 93.291 119 86.2193 128.51 80.4016C132.412 78.0328 137.498 79.6004 139.414 83.7111L144.988 95.834C146.59 99.3525 145.336 103.533 142.027 105.484C134.676 109.838 127.744 115.133 121.404 121.473C113.426 129.451 107.051 138.404 102.209 147.949C97.9939 156.275 94.9631 165.053 93.1516 174.041C92.5594 176.932 94.1619 179.824 96.8443 181.043L120.219 191.773L213.023 234.482C219.119 237.303 226.469 235.979 231.207 231.242C235.945 226.504 237.268 219.154 234.447 213.057L191.773 120.219L178.918 92.3504L166.203 64.6209L158.818 48.5615C155.334 40.9324 146.904 37.1004 139.205 39.5041C138.578 39.7131 137.916 39.9221 137.359 40.2357C116.77 49.084 97.0881 62.2869 79.6701 79.7049C62.3217 97.0533 49.1537 116.736 40.3053 137.219C40.166 137.428 40.0963 137.637 39.9918 137.881C39.8176 138.264 39.6783 138.787 39.5389 139.205C37.0656 146.973 40.9672 155.369 48.5615 158.852H48.5266ZM180.137 172.264C181.705 175.783 179.615 178.291 178.918 178.988C178.221 179.684 175.713 181.775 172.229 180.172L135.617 163.346C132.447 161.883 131.262 157.912 133.213 154.986C136.035 150.77 139.309 146.764 143.002 143.072C146.695 139.379 150.736 136.07 154.951 133.248C157.877 131.297 161.848 132.447 163.311 135.652L180.137 172.264Z" fill="white"/>
<path d="M495.473 385.182L484.988 380.375C482.061 379.016 478.682 380.654 477.777 383.754C475.338 391.975 472.063 400.127 467.883 408.035C461.404 420.227 452.904 431.863 442.418 442.383C434.057 450.744 425 457.816 415.49 463.633C411.588 466.002 406.502 464.434 404.586 460.324L399.012 448.201C397.41 444.682 398.664 440.502 401.973 438.551C409.324 434.197 416.256 428.902 422.596 422.562C430.574 414.584 436.949 405.631 441.791 396.086C446.006 387.76 449.037 378.982 450.848 369.994C451.441 367.102 449.838 364.211 447.156 362.992L423.781 352.262L330.977 309.553C324.881 306.732 317.531 308.055 312.793 312.793C308.055 317.531 306.732 324.881 309.553 330.977L352.227 423.816L365.082 451.684L377.797 479.414L385.182 495.473C388.666 503.102 397.096 506.934 404.795 504.531C405.422 504.322 406.084 504.113 406.641 503.799C427.229 494.951 446.912 481.748 464.33 464.33C481.678 446.982 494.846 427.299 503.695 406.816C503.834 406.607 503.904 406.398 504.008 406.154C504.182 405.77 504.322 405.248 504.461 404.83C506.934 397.061 503.033 388.666 495.438 385.182H495.473ZM363.863 371.771C362.295 368.252 364.385 365.744 365.082 365.047C365.779 364.35 368.287 362.26 371.77 363.863L408.383 380.689C411.553 382.152 412.738 386.123 410.787 389.049C407.965 393.264 404.691 397.271 400.998 400.963C397.27 404.691 393.264 407.965 389.049 410.787C386.123 412.738 382.152 411.588 380.688 408.383L363.863 371.771V371.771Z" fill="white"/>
<path d="M194.002 33.9652L198.008 44.7643C199.123 47.7951 202.676 49.0143 205.498 47.4816C213.023 43.4057 221.139 39.957 229.674 37.3094C242.877 33.2684 257.125 31.0389 271.965 31.0389C283.775 31.0389 295.201 32.4324 306.035 35.0451C310.459 36.125 312.967 40.8279 311.4 45.1127L306.766 57.6189C305.443 61.2418 301.576 63.2971 297.848 62.3566C289.557 60.2316 280.918 59.082 271.965 59.082C260.678 59.082 249.844 60.8934 239.672 64.2377C230.789 67.1291 222.428 71.2049 214.799 76.291C212.361 77.9283 211.42 81.0984 212.43 83.8504L221.348 107.957L256.777 203.791C259.111 210.096 265.207 214.346 271.93 214.346C278.654 214.346 284.785 210.096 287.084 203.791L322.547 107.957L333.172 79.1475L343.797 50.5471L349.928 33.9652C352.854 26.127 349.615 17.4529 342.439 13.6906C341.846 13.377 341.219 13.0984 340.627 12.8893C319.865 4.59836 296.594 0 272 0C247.475 0 224.24 4.59836 203.512 12.8197C203.268 12.8545 203.059 12.959 202.816 13.0635C202.398 13.2029 201.945 13.4816 201.561 13.6557C194.35 17.3832 191.145 26.0922 194.037 33.9303L194.002 33.9652ZM277.609 136.523C276.25 140.111 272.975 140.424 272 140.424C271.025 140.424 267.75 140.111 266.426 136.523L252.422 98.7254C251.203 95.4508 253.189 91.793 256.637 91.1311C261.619 90.1557 266.74 89.6332 271.965 89.6332C277.225 89.6332 282.381 90.1557 287.363 91.1311C290.811 91.8279 292.797 95.4508 291.578 98.7254L277.574 136.523H277.609Z" fill="white"/>
<path d="M349.998 510.07L345.992 499.27C344.877 496.24 341.324 495.02 338.502 496.553C330.977 500.629 322.861 504.078 314.326 506.725C301.123 510.766 286.875 512.996 272.035 512.996C260.225 512.996 248.799 511.602 237.965 508.99C233.541 507.91 231.033 503.207 232.6 498.922L237.234 486.416C238.557 482.793 242.424 480.738 246.152 481.678C254.443 483.803 263.082 484.953 272.035 484.953C283.322 484.953 294.156 483.141 304.328 479.797C313.211 476.906 321.572 472.83 329.201 467.744C331.639 466.107 332.58 462.936 331.57 460.184L322.652 436.078L287.223 340.244C284.889 333.938 278.793 329.688 272.07 329.688C265.346 329.688 259.215 333.938 256.916 340.244L221.453 436.078L210.828 464.887L200.203 493.488L194.072 510.07C191.145 517.908 194.385 526.582 201.561 530.344C202.154 530.658 202.781 530.936 203.373 531.145C224.205 539.436 247.441 544.035 272.07 544.035C296.594 544.035 319.83 539.436 340.557 531.215C340.801 531.18 341.01 531.076 341.254 530.971C341.672 530.832 342.125 530.553 342.508 530.379C349.719 526.652 352.924 517.943 350.033 510.104L349.998 510.07ZM266.391 407.512C267.75 403.924 271.025 403.611 272 403.611C272.975 403.611 276.25 403.924 277.574 407.512L291.578 445.309C292.797 448.584 290.811 452.242 287.363 452.904C282.381 453.879 277.26 454.402 272.035 454.402C266.775 454.402 261.619 453.879 256.637 452.904C253.189 452.207 251.203 448.584 252.422 445.309L266.426 407.512H266.391Z" fill="white"/>
<path d="M510.07 194.002L499.27 198.008C496.24 199.123 495.02 202.676 496.553 205.498C500.629 213.023 504.078 221.139 506.725 229.674C510.766 242.877 512.996 257.125 512.996 271.965C512.996 283.775 511.602 295.201 508.99 306.035C507.91 310.459 503.207 312.967 498.922 311.4L486.416 306.766C482.793 305.443 480.738 301.576 481.678 297.848C483.803 289.557 484.953 280.918 484.953 271.965C484.953 260.678 483.141 249.844 479.797 239.672C476.906 230.789 472.83 222.428 467.744 214.799C466.107 212.361 462.936 211.42 460.184 212.43L436.078 221.348L340.244 256.777C333.938 259.111 329.688 265.207 329.688 271.93C329.688 278.654 333.938 284.785 340.244 287.084L436.078 322.547L464.887 333.172L493.488 343.797L510.07 349.928C517.908 352.854 526.582 349.615 530.344 342.438C530.658 341.846 530.936 341.219 531.145 340.627C539.436 319.795 544.035 296.559 544.035 271.93C544.035 247.406 539.436 224.17 531.215 203.443C531.18 203.199 531.076 202.99 530.971 202.746C530.832 202.328 530.553 201.875 530.379 201.492C526.652 194.281 517.943 191.076 510.104 193.967L510.07 194.002ZM407.512 277.609C403.924 276.25 403.611 272.975 403.611 272C403.611 271.025 403.924 267.75 407.512 266.426L445.309 252.422C448.584 251.203 452.242 253.188 452.904 256.637C453.879 261.619 454.402 266.74 454.402 271.965C454.402 277.225 453.879 282.381 452.904 287.363C452.207 290.811 448.584 292.797 445.309 291.578L407.512 277.574V277.609Z" fill="white"/>
<path d="M33.9652 349.998L44.7643 345.992C47.7951 344.877 49.0143 341.324 47.4816 338.502C43.4057 330.977 39.957 322.861 37.3094 314.326C33.2684 301.123 31.0389 286.875 31.0389 272.035C31.0389 260.225 32.4324 248.799 35.0451 237.965C36.125 233.541 40.8279 231.033 45.1127 232.6L57.6189 237.234C61.2418 238.557 63.2971 242.424 62.3566 246.152C60.2316 254.443 59.082 263.082 59.082 272.035C59.082 283.322 60.8934 294.156 64.2377 304.328C67.1291 313.211 71.2049 321.572 76.291 329.201C77.9283 331.639 81.0984 332.58 83.8504 331.57L107.957 322.652L203.791 287.223C210.096 284.889 214.346 278.793 214.346 272.07C214.346 265.346 210.096 259.215 203.791 256.916L107.957 221.453L79.1475 210.828L50.5471 200.203L33.9652 194.072C26.127 191.145 17.4529 194.385 13.6906 201.561C13.377 202.154 13.0984 202.781 12.8893 203.373C4.59836 224.17 0 247.406 0 272.035C0 296.559 4.59836 319.795 12.8197 340.523C12.8545 340.766 12.959 340.975 13.0635 341.219C13.2029 341.637 13.4816 342.09 13.6557 342.473C17.3832 349.684 26.0922 352.889 33.9303 349.998H33.9652ZM136.523 266.391C140.111 267.75 140.424 271.025 140.424 272C140.424 272.975 140.111 276.25 136.523 277.574L98.7254 291.578C95.4508 292.797 91.793 290.811 91.1311 287.363C90.1557 282.381 89.6332 277.26 89.6332 272.035C89.6332 266.775 90.1557 261.619 91.1311 256.637C91.8279 253.189 95.4508 251.203 98.7254 252.422L136.523 266.426V266.391Z" fill="white"/>
</g>
</g>
<defs>
<clipPath id="clip0_9_326">
<rect width="544" height="544" rx="10" fill="white"/>
</clipPath>
</defs>
</svg>
