<svg width="20" height="20" viewBox="0 0 20 20" fill="none" xmlns="http://www.w3.org/2000/svg">
<path fill-rule="evenodd" clip-rule="evenodd" d="M18.7262 7.4706C18.7825 7.4706 18.8387 7.47495 18.8942 7.48362C19.447 7.56978 19.8378 8.0569 19.8165 8.60268L19.8041 8.72952L18.3664 17.9535C18.0796 19.4021 16.8358 19.7635 15.3409 19.8121L14.9457 19.8182H4.91785L4.52266 19.8121C3.09284 19.7656 1.89306 19.4325 1.53998 18.1363L1.49714 17.9535L0.192478 8.71404C0.185343 8.66351 0.181763 8.61254 0.181763 8.56151C0.181763 8.00205 0.602897 7.54096 1.14545 7.47794L1.27267 7.4706H18.7262ZM13.7557 11.3864C14.2076 11.3864 14.5739 11.7527 14.5739 12.2045V14.9318C14.5739 15.3837 14.2076 15.75 13.7557 15.75C13.3038 15.75 12.9375 15.3837 12.9375 14.9318V12.2045C12.9375 11.7527 13.3038 11.3864 13.7557 11.3864ZM9.9375 11.3864C10.3894 11.3864 10.7557 11.7527 10.7557 12.2045V14.9318C10.7557 15.3837 10.3894 15.75 9.9375 15.75C9.48563 15.75 9.11932 15.3837 9.11932 14.9318V12.2045C9.11932 11.7527 9.48563 11.3864 9.9375 11.3864ZM6.11932 11.3864C6.57119 11.3864 6.9375 11.7527 6.9375 12.2045V14.9318C6.9375 15.3837 6.57119 15.75 6.11932 15.75C5.66745 15.75 5.30114 15.3837 5.30114 14.9318V12.2045C5.30114 11.7527 5.66745 11.3864 6.11932 11.3864ZM9.94538 0.181904C10.1668 0.179027 10.3889 0.253136 10.5577 0.404245L14.9549 4.34183C15.2861 4.63837 15.2861 5.11917 14.9549 5.41571C14.6238 5.71226 14.0868 5.71226 13.7557 5.41571L9.94629 2.00338L6.13633 5.41571C5.80517 5.71226 5.26825 5.71226 4.93709 5.41571C4.60592 5.11917 4.60592 4.63837 4.93709 4.34183L9.33433 0.404245C9.50282 0.253371 9.72456 0.179258 9.94538 0.181904Z" fill="#F6CD46"/>
</svg>
