<svg width="20" height="20" viewBox="0 0 20 20" fill="none" xmlns="http://www.w3.org/2000/svg">
<path d="M6.66667 7.33333C6.66667 5.49238 8.15905 4 10 4C11.8409 4 13.3333 5.49238 13.3333 7.33333C13.3333 9.17428 11.8409 10.6667 10 10.6667C8.15905 10.6667 6.66667 9.17428 6.66667 7.33333Z" fill="#F6CD46"/>
<path fill-rule="evenodd" clip-rule="evenodd" d="M10 0C4.47715 0 0 4.47715 0 10C0 15.5228 4.47715 20 10 20C15.5228 20 20 15.5228 20 10C20 4.47715 15.5228 0 10 0ZM1.33333 10C1.33333 5.21353 5.21353 1.33333 10 1.33333C14.7865 1.33333 18.6667 5.21353 18.6667 10C18.6667 12.4661 17.6367 14.6916 15.9834 16.2698C15.7821 13.8781 13.777 12 11.3333 12H8.66667C6.22298 12 4.21794 13.8781 4.01662 16.2698C2.36334 14.6916 1.33333 12.4661 1.33333 10Z" fill="#F6CD46"/>
</svg>
