<svg width="15" height="16" viewBox="0 0 15 16" fill="none" xmlns="http://www.w3.org/2000/svg">
<path d="M7.5 0.5C3.36 0.5 0 3.86 0 8C0 12.14 3.36 15.5 7.5 15.5C11.64 15.5 15 12.14 15 8C15 3.86 11.64 0.5 7.5 0.5ZM10.98 5.6C10.8675 6.785 10.38 9.665 10.1325 10.9925C10.0275 11.555 9.8175 11.7425 9.6225 11.765C9.1875 11.8025 8.8575 11.48 8.4375 11.2025C7.7775 10.7675 7.4025 10.4975 6.765 10.0775C6.0225 9.59 6.5025 9.32 6.93 8.885C7.0425 8.7725 8.9625 7.025 9 6.8675C9.00521 6.84364 9.00452 6.81888 8.99798 6.79535C8.99145 6.77183 8.97927 6.75025 8.9625 6.7325C8.9175 6.695 8.8575 6.71 8.805 6.7175C8.7375 6.7325 7.6875 7.43 5.64 8.81C5.34 9.0125 5.07 9.1175 4.83 9.11C4.56 9.1025 4.05 8.96 3.6675 8.8325C3.195 8.6825 2.8275 8.6 2.8575 8.3375C2.8725 8.2025 3.06 8.0675 3.4125 7.925C5.6025 6.9725 7.0575 6.3425 7.785 6.0425C9.87 5.1725 10.2975 5.0225 10.5825 5.0225C10.6425 5.0225 10.785 5.0375 10.875 5.1125C10.95 5.1725 10.9725 5.255 10.98 5.315C10.9725 5.36 10.9875 5.495 10.98 5.6Z" fill="#828D9E"/>
</svg>
