<svg width="19" height="12" viewBox="0 0 19 12" fill="none" xmlns="http://www.w3.org/2000/svg">
<path fill-rule="evenodd" clip-rule="evenodd" d="M18.3086 1.15625C18.4477 0.715625 18.3086 0.395312 17.6934 0.395312H15.6477C15.1317 0.395312 14.8934 0.675781 14.7543 0.975781C14.7543 0.975781 13.702 3.53828 12.2324 5.19961C11.7559 5.68008 11.5375 5.84023 11.2793 5.84023C11.1402 5.84023 10.9613 5.68008 10.9613 5.23984V1.13555C10.9613 0.615234 10.8027 0.375 10.3656 0.375H7.14845C6.83048 0.375 6.63204 0.615234 6.63204 0.855469C6.63204 1.35586 7.36681 1.47617 7.4461 2.87734V5.92188C7.4461 6.58242 7.32892 6.70312 7.06876 6.70312C6.37384 6.70312 4.68594 4.1207 3.67344 1.17812C3.47657 0.595312 3.27657 0.375 2.76016 0.375H0.694923C0.0992189 0.375 0 0.655078 0 0.955469C0 1.49609 0.694923 4.21836 3.23672 7.82148C4.92462 10.2824 7.32735 11.6051 9.49181 11.6051C10.8027 11.6051 10.9613 11.3047 10.9613 10.8043V8.94258C10.9613 8.34219 11.0805 8.24219 11.4977 8.24219C11.7953 8.24219 12.3317 8.40195 13.543 9.5832C14.9328 10.9844 15.1711 11.625 15.9457 11.625H17.991C18.5867 11.625 18.8649 11.3246 18.7059 10.7441C18.5274 10.1637 17.852 9.32305 16.9781 8.32227C16.5016 7.76211 15.7867 7.14141 15.5684 6.84102C15.2707 6.44063 15.35 6.28047 15.5684 5.92031C15.5485 5.92031 18.0508 2.35703 18.3086 1.15469" fill="#828D9E"/>
</svg>
