<svg width="20" height="20" viewBox="0 0 20 20" fill="none" xmlns="http://www.w3.org/2000/svg">
<path fill-rule="evenodd" clip-rule="evenodd" d="M18.7263 7.47054C18.7825 7.47054 18.8387 7.47489 18.8943 7.48355C19.4471 7.56972 19.8378 8.05684 19.8165 8.60262L19.8042 8.72946L18.3665 17.9535C18.0797 19.402 16.8358 19.7635 15.3409 19.812L14.9457 19.8181H4.91792L4.52272 19.812C3.0929 19.7655 1.89313 19.4325 1.54004 18.1362L1.4972 17.9535L0.192539 8.71398C0.185404 8.66345 0.181824 8.61248 0.181824 8.56145C0.181824 8.00199 0.602959 7.5409 1.14551 7.47788L1.27273 7.47054H18.7263ZM13.7557 11.3863C14.2076 11.3863 14.5739 11.7526 14.5739 12.2045V14.9318C14.5739 15.3836 14.2076 15.7499 13.7557 15.7499C13.3039 15.7499 12.9376 15.3836 12.9376 14.9318V12.2045C12.9376 11.7526 13.3039 11.3863 13.7557 11.3863ZM9.93756 11.3863C10.3894 11.3863 10.7557 11.7526 10.7557 12.2045V14.9318C10.7557 15.3836 10.3894 15.7499 9.93756 15.7499C9.48569 15.7499 9.11938 15.3836 9.11938 14.9318V12.2045C9.11938 11.7526 9.48569 11.3863 9.93756 11.3863ZM6.11938 11.3863C6.57125 11.3863 6.93756 11.7526 6.93756 12.2045V14.9318C6.93756 15.3836 6.57125 15.7499 6.11938 15.7499C5.66751 15.7499 5.3012 15.3836 5.3012 14.9318V12.2045C5.3012 11.7526 5.66751 11.3863 6.11938 11.3863ZM9.94544 0.181843C10.1668 0.178966 10.389 0.253075 10.5577 0.404184L14.955 4.34176C15.2862 4.63831 15.2862 5.11911 14.955 5.41565C14.6238 5.7122 14.0869 5.7122 13.7557 5.41565L9.94635 2.00332L6.1364 5.41565C5.80523 5.7122 5.26831 5.7122 4.93715 5.41565C4.60598 5.11911 4.60598 4.63831 4.93715 4.34176L9.33439 0.404184C9.50288 0.25331 9.72463 0.179196 9.94544 0.181843Z" fill="white"/>
</svg>
