<svg width="96" height="96" viewBox="0 0 96 96" fill="none" xmlns="http://www.w3.org/2000/svg">
<circle cx="47.8862" cy="47.8862" r="47.5" fill="white"/>
<circle cx="47.8862" cy="47.8862" r="47.5" fill="white"/>
<path d="M48.4751 90.0247C71.8878 90.0247 90.8676 71.0449 90.8676 47.6322C90.8676 24.2194 71.8878 5.23965 48.4751 5.23965C25.0623 5.23965 6.08252 24.2194 6.08252 47.6322C6.08252 71.0449 25.0623 90.0247 48.4751 90.0247Z" fill="#242527"/>
<path fill-rule="evenodd" clip-rule="evenodd" d="M48.475 66.5583C60.4163 66.5583 69.6523 69.5937 73.5913 70.3891L70.913 29.4303C70.6749 25.7457 70.2745 24.8421 67.9642 23.7167C66.3302 22.9213 64.7124 22.1692 62.494 21.0817L58.6524 23.8303L56.683 18.1491C53.7828 16.7369 51.1857 15.2815 49.2217 14.5294C48.7563 14.3508 48.1936 14.3508 47.7283 14.5294C45.7642 15.2815 43.1671 16.7369 40.267 18.1491L38.2975 23.8303L34.456 21.0817C32.243 22.1692 30.6198 22.9213 28.9858 23.7167C26.6808 24.8367 26.275 25.7403 26.037 29.4303L23.3533 70.4378C26.7241 70.3945 36.5337 66.5529 48.475 66.5529L48.475 66.5583Z" fill="#FDFDFC"/>
<path fill-rule="evenodd" clip-rule="evenodd" d="M21.4316 80.28C28.4177 86.3895 38.0288 90.0309 48.1849 90.0309C58.4841 90.0309 67.9523 86.451 75.2458 80.5039C77.6913 78.51 79.91 76.2485 81.8575 73.7642C81.6273 73.5858 81.3955 73.4091 81.1621 73.2344C72.1387 66.478 60.6467 62.4607 48.1849 62.4607C35.7232 62.4607 24.2312 66.478 15.2078 73.2344C15.0966 73.3176 14.9859 73.4012 14.8755 73.4853C16.8027 75.9863 19.003 78.266 21.4316 80.28Z" fill="white"/>
<mask id="mask0_51_2872" style="mask-type:alpha" maskUnits="userSpaceOnUse" x="0" y="0" width="96" height="96">
<circle cx="47.8862" cy="47.8862" r="47.5" fill="white"/>
</mask>
<g mask="url(#mask0_51_2872)">
<path d="M49.8754 53.6364L50.1465 53.1564L50.2361 46.7576L49.7733 46.4616L49.7978 44.7245L52.7654 44.6906L52.6998 49.1792L56.0037 44.6537L59.0264 44.6192L58.9944 46.7957L58.468 46.8017L58.366 54.0767L55.8546 54.1053L55.938 48.4796L51.4402 54.881L49.8754 53.6364Z" fill="#242527"/>
<path d="M34.7076 44.8774L37.8895 44.8412L37.7862 48.2443L37.6947 51.2687L37.6744 51.9583L39.7223 51.935C39.7874 51.9343 40.8264 51.9149 41.0441 51.92L40.2302 51.0669L40.3604 44.8156L42.939 44.7863L42.7389 51.9032L45.2624 51.8745L45.3667 48.1606L45.4625 44.7576L47.3676 44.7359L48.0166 46.9071L47.8124 54.1744L42.6727 54.2329L40.2045 53.7997L40.0942 54.2622L35.8658 54.3103L35.0484 52.4294L35.2088 47.0527L34.6406 47.0592L34.7051 44.8799L34.7076 44.8774Z" fill="#242527"/>
<path d="M56.0464 28.8891L54.7558 33.3558L52.5354 33.3812L51.0744 28.9459L47.5334 28.9863L49.9856 36.4142L53.4664 36.3745L52.9044 38.6671L50.3958 38.6958L50.205 41.6266L55.2145 41.5694L57.1102 36.3329L59.6826 28.8476L56.0464 28.8891Z" fill="#242527"/>
<path d="M43.6244 38.8202L39.0779 38.9022L39.1685 31.9669L43.1382 31.9216L43.3008 33.7292L46.9376 33.2084L45.7648 28.9905L34.6526 29.1173L34.5999 32.0191L35.3442 32.0106L35.2306 40.7631L38.0141 42.3601L47.0143 41.5296L47.0844 36.1932L43.5182 36.6731L43.6244 38.8202Z" fill="#242527"/>
<path d="M48.2694 61.1194L48.2614 61.8549L46.3249 61.8762L46.3359 60.8681L47.7802 60.8522L48.1269 59.5203L46.3503 59.5398L46.3598 58.6718L49.5631 58.6366L49.5814 56.9606L48.347 56.9742L48.2715 57.2526L45.4929 57.2832L44.8253 58.0259L44.7739 62.7512L46.291 63.3873L49.5701 63.0535L49.594 60.8547L48.267 61.117L48.2694 61.1194ZM54.1458 58.5861L53.9426 60.7268L52.3359 60.7445L52.5091 58.6041L54.1458 58.5861ZM53.9259 60.8871L53.6859 63.4234L55.2841 63.7259L55.2739 62.1378L57.4299 62.1516L58.3937 61.5132L58.4213 57.1408L57.0343 56.9435L56.972 57.1568L51.9596 57.212L50.9939 58.2556L50.8136 61.0514L51.7763 62.1238L52.9579 62.1308L53.9309 60.887L53.9259 60.8871ZM55.2644 60.7122L55.2502 58.5739L56.582 58.5593L56.9977 58.0119L56.7537 60.6958L55.2644 60.7122ZM34.681 57.4023L36.7324 57.3797L36.7037 59.5661L36.6775 61.5097L36.6727 61.9525L37.9895 61.938C38.032 61.9375 38.6992 61.9252 38.8416 61.9286L38.3079 61.3792L38.3241 57.3622L39.9858 57.3439L39.936 61.9165L41.5602 61.8987L41.5862 59.5123L41.6124 57.326L43.6639 57.3034L43.6486 58.7042L43.2813 58.7082L43.2306 63.376L39.9148 63.4125L38.3188 63.1349L38.2531 63.4308L35.527 63.4608L34.9805 62.2513L35.0281 58.7967L34.6633 58.8007L34.6835 57.3998L34.681 57.4023Z" fill="#EE5446"/>
<path fill-rule="evenodd" clip-rule="evenodd" d="M48.475 90.0255C51.532 90.0255 54.5566 89.7009 57.5054 89.0624C56.4611 85.6645 55.4169 78.8417 56.8399 77.5972C56.8832 80.8004 57.9166 85.5347 59.3125 88.6296C63.9711 87.4014 68.4025 85.3778 72.4334 82.6129C73.4452 81.9204 73.8997 79.5721 72.3631 78.6848C57.8138 70.2874 39.1416 70.3415 24.5923 78.6848C24.3813 78.8038 24.0026 78.9932 23.6563 79.2583L23.6455 79.2475C20.8914 80.9032 18.3051 83.2135 17.1418 84.9125C18.0021 86.2814 21.2431 88.9326 22.7148 89.7929C23.1693 88.1318 23.7428 85.5888 24.9765 82.9213C31.9454 87.5745 40.0776 90.0309 48.4804 90.0309L48.475 90.0255ZM63.4679 81.2657C64.2471 81.2657 64.8747 80.6164 64.8747 79.8102C64.8747 79.004 64.2471 78.3547 63.4679 78.3547C62.6888 78.3547 62.0612 79.004 62.0612 79.8102C62.0612 80.6164 62.6888 81.2657 63.4679 81.2657Z" fill="#242527"/>
</g>
</svg>
