<?xml version="1.0" standalone="no"?>
<!DOCTYPE svg PUBLIC "-//W3C//DTD SVG 20010904//EN"
 "http://www.w3.org/TR/2001/REC-SVG-20010904/DTD/svg10.dtd">
<svg version="1.0" xmlns="http://www.w3.org/2000/svg"
 width="378.000000pt" height="378.000000pt" viewBox="0 0 378.000000 378.000000"
 preserveAspectRatio="xMidYMid meet">
<metadata>
Created by potrace 1.14, written by Peter Selinger 2001-2017
</metadata>
<g transform="translate(0.000000,378.000000) scale(0.100000,-0.100000)"
fill="#000000" stroke="none">
<path d="M1759 3776 c-2 -2 -30 -7 -62 -10 -65 -8 -255 -59 -297 -81 -28 -14
-60 -68 -60 -100 0 -10 10 -44 21 -76 19 -52 25 -59 48 -59 15 0 31 4 37 9 13
12 166 69 204 76 18 3 36 8 40 10 32 20 264 23 370 5 113 -19 124 -40 79 -147
-24 -57 -41 -64 -119 -47 -80 17 -232 12 -315 -10 -85 -23 -222 -93 -228 -117
-3 -11 41 -146 103 -312 232 -627 212 -579 249 -604 43 -29 79 -29 121 0 34
23 57 76 175 402 17 50 96 262 174 473 145 390 150 411 120 461 -22 36 -126
76 -279 107 -65 14 -371 29 -381 20z m238 -630 c11 -4 24 -14 28 -23 7 -20
-91 -293 -112 -310 -35 -28 -55 -1 -110 148 -29 79 -50 152 -47 161 3 10 17
21 32 24 15 3 32 7 37 8 19 5 150 -1 172 -8z"/>
<path d="M884 3466 c-161 -81 -323 -216 -443 -369 -54 -69 -145 -223 -162
-274 -14 -44 -5 -94 24 -121 52 -49 157 -75 157 -39 0 7 15 48 33 93 65 159
201 328 347 430 92 64 110 59 154 -43 25 -56 16 -82 -39 -117 -44 -27 -143
-119 -175 -162 -67 -91 -130 -235 -130 -299 0 -31 4 -34 93 -75 50 -23 119
-55 152 -71 345 -160 612 -279 627 -279 38 0 87 29 103 61 23 44 16 75 -44
203 -28 59 -51 109 -51 111 0 1 -20 45 -44 96 -24 52 -55 119 -69 149 -13 30
-39 85 -56 123 -17 37 -44 96 -61 132 -16 36 -44 95 -61 133 -17 37 -56 121
-86 187 -62 137 -84 164 -139 172 -32 4 -55 -3 -130 -41z m238 -618 c9 -7 43
-73 76 -147 61 -136 65 -160 28 -174 -14 -6 -271 106 -295 128 -8 8 -11 23 -8
37 11 39 141 168 171 168 7 0 19 -6 28 -12z"/>
<path d="M2711 3481 c-37 -35 -75 -114 -66 -140 3 -10 23 -23 48 -30 177 -52
389 -214 501 -383 49 -74 45 -94 -27 -131 -84 -42 -95 -39 -147 38 -82 120
-228 231 -360 272 -98 31 -107 33 -124 14 -8 -9 -70 -136 -136 -281 -67 -146
-137 -299 -157 -340 -91 -193 -105 -231 -98 -267 13 -71 91 -111 158 -80 17 8
59 27 92 42 33 15 107 50 164 76 57 27 105 49 106 49 2 0 39 16 82 36 124 58
204 95 258 119 28 12 84 38 125 58 41 19 131 60 200 91 143 66 169 87 177 143
4 34 -2 54 -43 133 -127 247 -343 459 -589 577 -87 41 -123 42 -164 4z m15
-643 c49 -37 124 -121 130 -145 8 -30 0 -40 -54 -64 -26 -12 -81 -37 -122 -56
-119 -55 -118 -55 -140 -33 -18 18 -19 23 -7 53 34 78 111 243 120 255 14 18
41 15 73 -10z"/>
<path d="M143 2424 c-36 -18 -60 -62 -92 -169 -70 -232 -64 -526 16 -778 38
-123 85 -153 188 -121 73 23 89 41 71 76 -31 58 -75 188 -91 263 -32 153 -14
429 30 461 20 15 48 11 108 -15 55 -24 68 -44 55 -85 -17 -55 -18 -235 -3
-309 19 -87 67 -204 103 -246 l27 -33 85 30 c47 16 227 82 400 146 173 65 334
124 357 133 64 24 88 55 88 115 0 45 -4 54 -30 75 -32 26 -1224 473 -1260 473
-11 0 -34 -8 -52 -16z m619 -425 c45 -17 97 -37 113 -44 17 -7 43 -17 58 -21
31 -7 49 -40 37 -64 -5 -9 -32 -24 -62 -34 -29 -10 -62 -22 -73 -27 -70 -30
-161 -58 -176 -54 -23 8 -32 35 -34 113 -4 103 13 161 47 162 3 0 44 -14 90
-31z"/>
<path d="M3525 2424 c-22 -8 -48 -18 -57 -21 -26 -8 -25 -32 3 -93 91 -190
118 -449 68 -642 -15 -57 -38 -64 -112 -37 -34 13 -66 28 -70 33 -4 6 -5 38
-1 71 10 82 10 241 0 295 -12 67 -62 192 -97 239 -24 34 -34 41 -52 36 -19 -6
-199 -72 -522 -191 -49 -18 -146 -53 -215 -78 -128 -47 -163 -71 -176 -121 -8
-34 2 -69 29 -99 16 -19 170 -79 617 -244 327 -121 605 -223 618 -227 33 -10
80 3 107 31 52 52 106 283 110 474 5 197 -17 337 -75 493 -32 84 -94 113 -175
81z m-397 -402 c20 -13 29 -62 27 -148 -2 -80 -15 -124 -37 -124 -25 0 -294
104 -305 117 -24 30 0 56 83 86 232 85 214 80 232 69z"/>
<path d="M1420 1601 c-47 -21 -115 -52 -152 -70 -71 -32 -151 -69 -265 -122
-38 -17 -111 -50 -163 -74 -52 -24 -131 -60 -175 -80 -391 -180 -383 -176
-391 -241 -4 -31 2 -54 29 -110 129 -263 353 -484 610 -605 106 -49 157 -33
203 66 36 76 35 79 -58 115 -192 72 -363 208 -473 373 -49 74 -44 96 30 131
82 39 96 36 140 -31 100 -151 295 -282 445 -300 45 -5 50 -4 59 18 5 13 91
202 191 419 100 217 184 409 187 426 7 42 -19 88 -61 108 -48 22 -60 21 -156
-23z m-170 -371 c7 -12 -6 -49 -48 -141 -74 -160 -79 -169 -101 -169 -42 0
-181 139 -181 181 0 21 20 33 179 105 63 29 120 50 128 47 7 -3 18 -13 23 -23z"/>
<path d="M2202 1628 c-12 -6 -32 -27 -43 -45 -33 -53 -32 -57 102 -341 27 -57
49 -105 49 -107 0 -2 18 -41 39 -87 74 -158 111 -239 111 -242 0 -2 26 -59 58
-127 32 -68 66 -140 75 -159 101 -223 110 -237 170 -247 28 -4 52 2 104 26
259 121 473 335 617 616 29 57 28 126 -2 158 -30 32 -117 70 -141 62 -10 -3
-23 -23 -30 -48 -53 -178 -213 -389 -383 -501 -76 -51 -95 -46 -132 33 -36 75
-31 97 31 136 144 90 295 316 297 445 l1 45 -85 42 c-47 23 -134 64 -195 91
-60 28 -153 70 -205 95 -362 169 -389 178 -438 155z m496 -429 c57 -27 107
-49 110 -49 4 0 18 -9 31 -19 35 -27 22 -59 -54 -136 -63 -62 -108 -87 -124
-69 -25 28 -134 264 -133 287 1 29 22 48 45 41 12 -4 68 -29 125 -55z"/>
<path d="M1831 1468 c-30 -20 -42 -44 -101 -203 -193 -512 -390 -1054 -390
-1069 0 -10 8 -34 17 -53 20 -42 59 -62 194 -97 137 -36 141 -37 299 -41 189
-5 271 6 432 56 150 46 180 91 138 208 -26 69 -35 73 -103 43 -92 -40 -124
-52 -182 -66 -149 -37 -337 -39 -468 -5 -53 14 -63 44 -36 112 30 79 45 88
121 71 90 -19 254 -11 343 16 126 40 217 95 210 130 -4 19 -87 250 -170 470
-24 63 -60 160 -80 215 -20 55 -43 119 -52 142 -31 85 -107 116 -172 71z m99
-522 c5 -11 30 -78 55 -148 53 -145 51 -163 -12 -170 -50 -7 -162 -3 -190 6
-11 4 -24 14 -28 23 -7 20 91 292 112 309 19 16 53 5 63 -20z"/>
</g>
</svg>
